<svg width="119" height="41" viewBox="0 0 119 41" fill="none" xmlns="http://www.w3.org/2000/svg">
<path d="M114.111 0.58252H4.93304C2.26698 0.58252 0.105713 2.74379 0.105713 5.40985V35.9829C0.105713 38.649 2.26698 40.8102 4.93304 40.8102H114.111C116.777 40.8102 118.938 38.649 118.938 35.9829V5.40985C118.938 2.74379 116.777 0.58252 114.111 0.58252Z" fill="black"/>
<path fill-rule="evenodd" clip-rule="evenodd" d="M26.1203 19.7755C26.0944 16.8979 28.4764 15.498 28.5853 15.4328C27.2363 13.466 25.1453 13.1973 24.4105 13.1758C22.6544 12.991 20.9509 14.2267 20.0563 14.2267C19.1439 14.2267 17.7663 13.1937 16.2815 13.224C14.3709 13.2535 12.5835 14.3597 11.6032 16.0774C9.5801 19.5799 11.0889 24.727 13.0272 27.5581C13.9968 28.9455 15.1298 30.4927 16.6127 30.4383C18.0636 30.3793 18.6055 29.5133 20.3563 29.5133C22.091 29.5133 22.5999 30.4383 24.1123 30.4025C25.6694 30.3793 26.6497 29.0107 27.5853 27.6107C28.7058 26.0233 29.1558 24.4564 29.1737 24.3761C29.1379 24.3645 26.1506 23.2244 26.1203 19.7755Z" fill="white"/>
<path fill-rule="evenodd" clip-rule="evenodd" d="M23.2633 11.3134C24.0436 10.3376 24.5775 9.00997 24.4293 7.66272C23.2999 7.71272 21.8874 8.44393 21.0741 9.39834C20.3545 10.2394 19.7117 11.6179 19.8777 12.9142C21.1464 13.0089 22.449 12.2741 23.2633 11.3134Z" fill="white"/>
<path fill-rule="evenodd" clip-rule="evenodd" d="M47.1342 30.2393H45.1066L43.996 26.7493H40.1355L39.0775 30.2393H37.1035L40.9292 18.3578H43.2916L47.1342 30.2393ZM43.6612 25.2851L42.6568 22.1835C42.5505 21.8656 42.3505 21.1192 42.0577 19.9443H42.022C41.9041 20.4496 41.7158 21.196 41.4577 22.1835L40.4703 25.2851H43.6612Z" fill="white"/>
<path fill-rule="evenodd" clip-rule="evenodd" d="M56.9534 25.8502C56.9534 27.3073 56.5578 28.459 55.7659 29.3045C55.057 30.0571 54.1758 30.433 53.125 30.433C51.9902 30.433 51.1742 30.0286 50.6787 29.217V33.7123H48.7752V24.4878C48.7752 23.5727 48.7511 22.6343 48.7047 21.6719H50.3787L50.485 23.0307H50.5207C51.1555 22.0067 52.1188 21.4951 53.4116 21.4951C54.4223 21.4951 55.266 21.8942 55.9409 22.6933C56.615 23.4941 56.9534 24.5458 56.9534 25.8502ZM55.0142 25.9199C55.0142 25.086 54.8267 24.3985 54.4499 23.8575C54.0383 23.2941 53.4857 23.0111 52.7929 23.0111C52.3233 23.0111 51.8965 23.1682 51.5153 23.4789C51.1331 23.7905 50.8832 24.1985 50.7662 24.7048C50.7073 24.9396 50.6778 25.1315 50.6778 25.2833V26.7136C50.6778 27.335 50.8689 27.8608 51.251 28.2912C51.6331 28.7197 52.1295 28.9349 52.7402 28.9349C53.4571 28.9349 54.0151 28.6572 54.4142 28.1064C54.8142 27.5537 55.0142 26.8252 55.0142 25.9199Z" fill="white"/>
<path fill-rule="evenodd" clip-rule="evenodd" d="M66.8072 25.8502C66.8072 27.3073 66.4117 28.459 65.6198 29.3045C64.91 30.0571 64.0297 30.433 62.978 30.433C61.8441 30.433 61.0281 30.0286 60.5317 29.217V33.7123H58.6282V24.4878C58.6282 23.5727 58.6041 22.6343 58.5577 21.6719H60.2317L60.3379 23.0307H60.3736C61.0075 22.0067 61.9709 21.4951 63.2646 21.4951C64.2743 21.4951 65.1189 21.8942 65.7948 22.6933C66.468 23.4941 66.8072 24.5458 66.8072 25.8502ZM64.8671 25.9199C64.8671 25.086 64.6788 24.3985 64.302 23.8575C63.8913 23.2941 63.3396 23.0111 62.6467 23.0111C62.1771 23.0111 61.7504 23.1682 61.3673 23.4789C60.9861 23.7905 60.7361 24.1985 60.6192 24.7048C60.5611 24.9396 60.5299 25.1315 60.5299 25.2833V26.7136C60.5299 27.335 60.7218 27.8608 61.1022 28.2912C61.4843 28.7188 61.9807 28.9349 62.5932 28.9349C63.311 28.9349 63.869 28.6572 64.2672 28.1064C64.6672 27.5537 64.8671 26.8252 64.8671 25.9199Z" fill="white"/>
<path fill-rule="evenodd" clip-rule="evenodd" d="M77.8244 26.9073C77.8244 27.918 77.4718 28.7402 76.7682 29.375C75.9951 30.0678 74.9157 30.4151 73.5318 30.4151C72.2533 30.4151 71.2284 30.1687 70.4552 29.675L70.8954 28.0885C71.7301 28.5822 72.647 28.8295 73.6452 28.8295C74.363 28.8295 74.921 28.667 75.3192 28.3447C75.7192 28.0206 75.9201 27.5894 75.9201 27.0501C75.9201 26.5671 75.754 26.1618 75.4255 25.8324C75.096 25.5047 74.5514 25.1976 73.7872 24.9172C71.7069 24.1414 70.6659 23.0057 70.6659 21.5138C70.6659 20.5389 71.0337 19.7407 71.7667 19.1167C72.5006 18.4935 73.4738 18.1819 74.6844 18.1819C75.7656 18.1819 76.6665 18.3703 77.3816 18.7461L76.9039 20.2978C76.2308 19.9336 75.471 19.7514 74.621 19.7514C73.9496 19.7514 73.422 19.9166 73.0461 20.2452C72.7292 20.5389 72.5676 20.8969 72.5676 21.3219C72.5676 21.7906 72.7506 22.1799 73.1158 22.4843C73.4318 22.7665 74.0086 23.0727 74.8425 23.4012C75.8656 23.8137 76.6165 24.294 77.0986 24.8458C77.5834 25.3976 77.8244 26.0859 77.8244 26.9073Z" fill="white"/>
<path fill-rule="evenodd" clip-rule="evenodd" d="M84.134 23.1004H82.0359V27.26C82.0359 28.3179 82.4055 28.8456 83.1465 28.8456C83.4867 28.8456 83.7688 28.817 83.992 28.7572L84.0447 30.2027C83.6697 30.3428 83.176 30.4134 82.5653 30.4134C81.8127 30.4134 81.2261 30.183 80.8011 29.725C80.3779 29.2661 80.1663 28.4974 80.1663 27.4153V23.0968H78.9173V21.6683H80.1663V20.0997L82.0359 19.5354V21.6683H84.134V23.1004Z" fill="white"/>
<path fill-rule="evenodd" clip-rule="evenodd" d="M93.5817 25.8851C93.5817 27.2019 93.2058 28.2831 92.4532 29.1286C91.6666 29.9982 90.6202 30.433 89.3158 30.433C88.057 30.433 87.0562 30.0161 86.3098 29.1822C85.5634 28.3483 85.1902 27.2966 85.1902 26.0279C85.1902 24.7003 85.5768 23.6129 86.3446 22.7674C87.1142 21.9219 88.1516 21.4978 89.456 21.4978C90.714 21.4978 91.7229 21.9165 92.488 22.7495C93.2183 23.5593 93.5817 24.603 93.5817 25.8851ZM91.6086 25.9288C91.6086 25.144 91.4389 24.4709 91.0988 23.9075C90.6997 23.2272 90.1274 22.8879 89.3882 22.8879C88.6266 22.8879 88.04 23.2272 87.6427 23.9075C87.3008 24.4709 87.132 25.1556 87.132 25.9645C87.132 26.7502 87.3008 27.4252 87.6427 27.9858C88.0543 28.667 88.6284 29.0072 89.373 29.0072C90.0997 29.0072 90.6702 28.659 91.0836 27.9698C91.4327 27.393 91.6086 26.7154 91.6086 25.9288Z" fill="white"/>
<path fill-rule="evenodd" clip-rule="evenodd" d="M99.7715 23.3459C99.5831 23.3111 99.3813 23.2941 99.1715 23.2941C98.5019 23.2941 97.9841 23.545 97.6198 24.0521C97.3029 24.4985 97.1449 25.0628 97.1449 25.744V30.2393H95.2414V24.37C95.2414 23.3834 95.2226 22.4826 95.186 21.6728H96.844L96.9136 23.312H96.9663C97.1681 22.7486 97.4841 22.2942 97.918 21.9549C98.343 21.6478 98.8001 21.4951 99.2938 21.4951C99.4697 21.4951 99.6286 21.5085 99.7697 21.5299L99.7715 23.3459Z" fill="white"/>
<path fill-rule="evenodd" clip-rule="evenodd" d="M108.284 25.5502C108.284 25.8913 108.262 26.1788 108.215 26.4136H102.505C102.526 27.2599 102.803 27.9081 103.333 28.3545C103.814 28.7527 104.437 28.9527 105.201 28.9527C106.046 28.9527 106.818 28.8188 107.511 28.5474L107.809 29.8687C106.999 30.2214 106.041 30.3982 104.937 30.3982C103.609 30.3982 102.566 30.0071 101.807 29.2268C101.051 28.4456 100.671 27.3948 100.671 26.0805C100.671 24.7895 101.022 23.7137 101.729 22.8557C102.469 21.9397 103.468 21.4817 104.725 21.4817C105.96 21.4817 106.894 21.9397 107.528 22.8557C108.032 23.5816 108.284 24.4815 108.284 25.5502ZM106.469 25.0565C106.483 24.4913 106.358 24.0057 106.1 23.5932C105.77 23.0629 105.263 22.7986 104.584 22.7986C103.961 22.7986 103.454 23.0566 103.069 23.5744C102.752 23.986 102.563 24.4815 102.505 25.0547L106.469 25.0565Z" fill="white"/>
<path fill-rule="evenodd" clip-rule="evenodd" d="M42.7434 14.1052H41.7461L41.2006 12.3902H39.3034L38.7829 14.1052H37.8124L39.6927 8.26538H40.8533L42.7434 14.1052ZM41.0364 11.6705L40.5426 10.1456C40.4909 9.98939 40.3953 9.62602 40.248 9.04569H40.2302C40.1695 9.29657 40.0828 9.66084 39.9525 10.1456L39.4677 11.6705H41.0364Z" fill="white"/>
<path fill-rule="evenodd" clip-rule="evenodd" d="M47.4449 9.89478L45.8504 14.1053H44.9406L43.3978 9.89478H44.4031L45.1227 12.1214C45.2442 12.4937 45.3477 12.8491 45.4254 13.1866H45.4513C45.5209 12.8839 45.6245 12.5286 45.7539 12.1214L46.4646 9.89478H47.4449Z" fill="white"/>
<path fill-rule="evenodd" clip-rule="evenodd" d="M50.8394 14.1053L50.7698 13.6205H50.7439C50.4582 14.0107 50.0421 14.2008 49.5136 14.2008C48.7601 14.2008 48.2226 13.6723 48.2226 12.9616C48.2226 11.9224 49.1234 11.3849 50.6832 11.3849V11.3073C50.6832 10.7528 50.3885 10.4752 49.8082 10.4752C49.3922 10.4752 49.0279 10.5796 48.7083 10.7876L48.5181 10.1725C48.9083 9.92965 49.3931 9.80823 49.9654 9.80823C51.0653 9.80823 51.6206 10.3886 51.6206 11.5501V13.1009C51.6206 13.5259 51.6385 13.8553 51.6813 14.1062L50.8394 14.1053ZM50.7091 12.0081C49.6689 12.0081 49.1493 12.2599 49.1493 12.8572C49.1493 13.2991 49.4181 13.5152 49.7904 13.5152C50.2671 13.5152 50.7091 13.1518 50.7091 12.6581V12.0081Z" fill="white"/>
<path fill-rule="evenodd" clip-rule="evenodd" d="M53.7044 9.20105C53.3928 9.20105 53.15 8.9582 53.15 8.63769C53.15 8.31717 53.4008 8.08325 53.7223 8.08325C54.0428 8.08325 54.3026 8.31717 54.2937 8.63769C54.2937 8.97606 54.0517 9.20105 53.7044 9.20105ZM53.2544 9.89476H54.1901V14.1052H53.2544V9.89476Z" fill="white"/>
<path fill-rule="evenodd" clip-rule="evenodd" d="M55.8525 7.96277H56.7882V14.1053H55.8525V7.96277Z" fill="white"/>
<path fill-rule="evenodd" clip-rule="evenodd" d="M60.7648 14.1052L60.6942 13.6204H60.6692C60.3835 14.0106 59.9675 14.2008 59.4389 14.2008C58.6854 14.2008 58.1479 13.6722 58.1479 12.9615C58.1479 11.9223 59.0488 11.3848 60.6085 11.3848V11.3072C60.6085 10.7527 60.3139 10.4751 59.7336 10.4751C59.3175 10.4751 58.9533 10.5795 58.6336 10.7876L58.4426 10.1715C58.8327 9.92867 59.3175 9.80725 59.8898 9.80725C60.9898 9.80725 61.546 10.3876 61.546 11.5491V13.0999C61.546 13.5249 61.5638 13.8543 61.6049 14.1052H60.7648ZM60.6344 12.008C59.5943 12.008 59.0747 12.2598 59.0747 12.8571C59.0747 13.299 59.3434 13.5151 59.7157 13.5151C60.1925 13.5151 60.6344 13.1517 60.6344 12.658V12.008Z" fill="white"/>
<path fill-rule="evenodd" clip-rule="evenodd" d="M65.3359 14.2008C64.7386 14.2008 64.2975 13.949 64.0109 13.4553H63.9931L63.9395 14.1053H63.1431C63.1681 13.7678 63.1771 13.3857 63.1771 12.9705V7.96277H64.1145V10.5108H64.1315C64.4091 10.043 64.8591 9.80909 65.4742 9.80909C66.4885 9.80909 67.1992 10.676 67.1992 11.9402C67.1992 13.2473 66.4099 14.2008 65.3359 14.2008ZM65.1457 10.5439C64.6073 10.5439 64.1145 11.0117 64.1145 11.6617V12.3982C64.1145 12.9786 64.5573 13.4553 65.1287 13.4553C65.8296 13.4553 66.2474 12.8839 66.2474 11.9742C66.2465 11.1251 65.8126 10.5439 65.1457 10.5439Z" fill="white"/>
<path fill-rule="evenodd" clip-rule="evenodd" d="M68.584 7.96277H69.5188V14.1053H68.584V7.96277Z" fill="white"/>
<path fill-rule="evenodd" clip-rule="evenodd" d="M74.6113 12.225H71.8025C71.8213 13.0222 72.348 13.4722 73.1275 13.4722C73.5444 13.4722 73.9256 13.4026 74.2631 13.2731L74.4086 13.9231C74.0104 14.0963 73.5426 14.1829 72.9971 14.1829C71.6793 14.1829 70.8999 13.3508 70.8999 12.0607C70.8999 10.7697 71.6981 9.79919 72.8926 9.79919C73.9658 9.79919 74.6434 10.5965 74.6434 11.8009C74.6461 11.9651 74.6381 12.1125 74.6113 12.225ZM73.7542 11.558C73.7542 10.9081 73.4239 10.4492 72.8257 10.4492C72.2882 10.4492 71.865 10.917 71.8025 11.558H73.7542Z" fill="white"/>
<path fill-rule="evenodd" clip-rule="evenodd" d="M80.2824 14.2008C79.0522 14.2008 78.2549 13.2821 78.2549 12.0349C78.2549 10.735 79.0691 9.80823 80.353 9.80823C81.5645 9.80823 82.3805 10.6832 82.3805 11.9661C82.3805 13.2821 81.5395 14.2008 80.2824 14.2008ZM80.3182 10.4921C79.6423 10.4921 79.2093 11.1242 79.2093 12.0081C79.2093 12.875 79.6512 13.5071 80.3092 13.5071C80.9672 13.5071 81.4092 12.8313 81.4092 11.9902C81.4092 11.1332 80.9762 10.4921 80.3182 10.4921Z" fill="white"/>
<path fill-rule="evenodd" clip-rule="evenodd" d="M87.4106 14.1052H86.4767V11.6875C86.4767 10.9429 86.1901 10.5697 85.6268 10.5697C85.0724 10.5697 84.6902 11.0465 84.6902 11.6009V14.1052H83.7564V11.0983C83.7564 10.7259 83.7456 10.3269 83.7206 9.89385H84.5438L84.5876 10.5438H84.6143C84.8634 10.0938 85.3759 9.80725 85.9482 9.80725C86.8303 9.80725 87.4106 10.4831 87.4106 11.583V14.1052Z" fill="white"/>
<path fill-rule="evenodd" clip-rule="evenodd" d="M93.5326 10.5965H92.5032V12.641C92.5032 13.1615 92.6844 13.4213 93.0478 13.4213C93.212 13.4213 93.3522 13.4035 93.4638 13.3776L93.4897 14.0883C93.3076 14.1579 93.0638 14.1927 92.763 14.1927C92.0246 14.1927 91.5853 13.7856 91.5853 12.7196V10.5965H90.972V9.89475H91.5853V9.12337L92.5032 8.8457V9.89386H93.5326V10.5965Z" fill="white"/>
<path fill-rule="evenodd" clip-rule="evenodd" d="M98.4876 14.1053H97.5511V11.7054C97.5511 10.9519 97.2645 10.5707 96.702 10.5707C96.2172 10.5707 95.7672 10.9001 95.7672 11.567V14.1053H94.8307V7.96277H95.7672V10.4921H95.7851C96.0788 10.0332 96.5047 9.80731 97.0502 9.80731C97.9421 9.80731 98.4876 10.5001 98.4876 11.601V14.1053Z" fill="white"/>
<path fill-rule="evenodd" clip-rule="evenodd" d="M103.269 12.225H100.461C100.479 13.0222 101.005 13.4722 101.786 13.4722C102.204 13.4722 102.584 13.4026 102.92 13.2731L103.066 13.9231C102.669 14.0963 102.2 14.1829 101.654 14.1829C100.337 14.1829 99.5573 13.3508 99.5573 12.0607C99.5573 10.7697 100.355 9.79919 101.549 9.79919C102.623 9.79919 103.3 10.5965 103.3 11.8009C103.303 11.9651 103.295 12.1125 103.269 12.225ZM102.411 11.558C102.411 10.9081 102.082 10.4492 101.484 10.4492C100.946 10.4492 100.522 10.917 100.461 11.558H102.411Z" fill="white"/>
</svg>
