<svg width="239" height="77" viewBox="0 0 239 77" fill="none" xmlns="http://www.w3.org/2000/svg">
<path fill-rule="evenodd" clip-rule="evenodd" d="M74.7454 4.1145C63.071 22.1271 49.5328 34.0484 13.5557 31.4505L26.4377 56.9235C40.7207 56.9235 61.187 69.1942 72.7849 76.9999C76.3718 60.3726 71.3196 52.2497 59.9834 47.1864C57.3788 48.2746 49.9555 50.8564 41.1756 52.322C64.1056 44.6969 81.7178 34.7511 74.7454 4.1145Z" fill="#34B5CF"/>
<path d="M114.494 9.89258H110.026L99.2853 21.5008V9.89258H95.4932V32.342H99.2853V26.6323L103.114 22.4323L110.509 32.342H115.074L105.783 19.4811L114.494 9.89258Z" fill="black"/>
<path d="M133.89 9.89258L123.95 32.342H127.903L130.061 27.2747H141.409L143.551 32.342H147.617L137.778 9.89258H133.89ZM131.474 23.9059L135.721 13.932L139.964 23.9059H131.474Z" fill="black"/>
<path d="M228.492 9.89258H224.7V32.342H238.238V28.913H228.492V9.89258Z" fill="black"/>
<path d="M199.68 9.89258L189.745 32.342H193.698L195.852 27.2747H207.204L209.358 32.342H213.412L203.569 9.89258H199.68ZM197.265 23.9059L201.52 13.932L205.763 23.9059H197.265Z" fill="black"/>
<path d="M174.693 26.026L162.636 9.89258H158.904V32.342H162.696V16.2407L174.693 32.342H178.425V9.89258H174.693V26.026Z" fill="black"/>
<path d="M138.061 44.3477L127.679 67.8049H131.813L134.063 62.5128H145.923L148.173 67.8049H152.408L142.127 44.3477H138.061ZM135.541 58.9914L139.969 48.5717L144.397 58.9914H135.541Z" fill="black"/>
<path d="M111.922 54.5344H99.4544V44.3477H95.4932V67.8049H99.4544V58.088H111.922V67.8049H115.883V44.3477H111.922V54.5344Z" fill="black"/>
<path d="M170.212 55.7752L163.494 44.3477H159.496L168.264 60.1317V67.8049H172.193V59.9992L180.828 44.3477H176.798L170.212 55.7752Z" fill="black"/>
<path d="M198.3 44.3477L187.918 67.8049H192.052L194.303 62.5128H206.162L208.413 67.8049H212.647L202.366 44.3477H198.3ZM195.78 58.9914L200.208 48.5717L204.636 58.9914H195.78Z" fill="black"/>
<path d="M219.334 47.9012H226.761V67.8049H230.723V47.9012H238.182V44.3477H219.334V47.9012Z" fill="black"/>
<path fill-rule="evenodd" clip-rule="evenodd" d="M0.238281 3.38782C5.12541 8.43101 6.3009 15.1486 7.75415 19.188C11.0069 28.2304 14.96 30.5833 45.0034 25.9135C27.1698 23.2876 31.1753 -10.6456 0.238281 3.38782Z" fill="#34B5CF"/>
</svg>
