<svg width="26" height="26" viewBox="0 0 26 26" fill="none" xmlns="http://www.w3.org/2000/svg">
<circle cx="13.0054" cy="13.3345" r="12.5" fill="transparent"/>
<path d="M7.56817 7.88496C7.78698 7.66615 8.14173 7.66615 8.36054 7.88496L18.3973 17.9217C18.6161 18.1405 18.6161 18.4952 18.3973 18.714C18.1784 18.9329 17.8237 18.9329 17.6049 18.714L7.56817 8.67733C7.34936 8.45852 7.34936 8.10376 7.56817 7.88496Z" fill="#EFEFEF"/>
<path d="M7.61298 18.7175C7.39418 18.4987 7.39418 18.1439 7.61298 17.9251L17.6497 7.88839C17.8685 7.66958 18.2233 7.66958 18.4421 7.88839C18.6609 8.1072 18.6609 8.46195 18.4421 8.68076L8.40536 18.7175C8.18655 18.9363 7.83179 18.9363 7.61298 18.7175Z" fill="#EFEFEF"/>
</svg>
