<svg width="13" height="21" viewBox="0 0 13 21" fill="none" xmlns="http://www.w3.org/2000/svg">
<path d="M9.38659 2.34325e-05C10.0028 2.34325e-05 10.6323 0.0290599 11.2486 0.0522891C11.6527 0.0522891 12.0569 0.116169 12.4346 0.15682V3.42633H10.8775C10.5727 3.42633 10.2612 3.42633 9.95644 3.42633C8.96914 3.42633 8.24026 3.78057 8.18725 4.86073C8.15412 5.64471 8.13425 7.36367 8.13425 7.45659H12.2557C12.0569 8.71096 11.8714 9.91888 11.6726 11.1326H8.13425L8.05473 20.3255H3.70796L3.78747 11.1268H0.23584L0.268971 7.4682H3.84048V7.20107C3.84048 6.46354 3.84048 5.72601 3.84048 4.98849C3.8438 4.51945 3.89033 4.0514 3.97963 3.58893C4.07706 3.04346 4.29781 2.52054 4.62893 2.05085C4.96004 1.58115 5.39485 1.17414 5.90785 0.853695C6.82591 0.294962 7.9177 -0.00304322 9.03541 2.34325e-05H9.38659Z" fill="white" fill-opacity="0.8"/>
</svg>
