<svg width="123" height="41" viewBox="0 0 123 41" fill="none" xmlns="http://www.w3.org/2000/svg">
<path d="M122.729 35.3026C122.729 38.2986 120.3 40.7284 117.305 40.7284H5.42524C2.42924 40.7284 0 38.2986 0 35.3026V6.00776C0 3.012 2.42948 0.58252 5.42524 0.58252H117.305C120.3 0.58252 122.729 3.012 122.729 6.00776V35.3026Z" fill="black"/>
<path d="M22.9146 21.9051L9.20538 8.31128V21.9049V35.4982L22.9146 21.9051Z" fill="url(#paint0_linear)"/>
<path d="M9.20551 8.31127L22.9147 21.9051L26.5968 18.2538L21.0631 15.0586L9.20551 8.2124V8.31127Z" fill="url(#paint1_linear)"/>
<path d="M26.5966 25.5556L22.9146 21.905L9.20538 35.4981V35.597L21.0629 28.7505L26.5966 25.5556Z" fill="url(#paint2_linear)"/>
<path d="M32.9207 21.9048L26.5966 18.2538L22.9146 21.9051L26.5966 25.5557L32.9207 21.9048Z" fill="url(#paint3_linear)"/>
<path d="M95.5133 27.2191C94.9983 27.2191 94.5285 27.1241 94.1031 26.9343C93.6776 26.7443 93.3201 26.452 93.0315 26.058H92.9451C93.0027 26.5197 93.0315 26.9573 93.0315 27.3707V30.6241H91.8346V19.1687H92.8083L92.9739 20.2509H93.0315C93.3396 19.8178 93.698 19.5056 94.1067 19.3132C94.5153 19.1207 94.9844 19.0245 95.513 19.0245C96.5616 19.0245 97.3709 19.383 97.9406 20.0995C98.5105 20.816 98.7955 21.8213 98.7955 23.1146C98.7955 24.4132 98.5057 25.4217 97.9267 26.1413C97.3472 26.8599 96.5429 27.2191 95.5133 27.2191ZM95.3403 20.0414C94.5323 20.0414 93.9481 20.2653 93.5874 20.7123C93.2268 21.1596 93.0415 21.8715 93.0317 22.8478V23.1144C93.0317 24.2256 93.2169 25.0203 93.5874 25.4989C93.9579 25.9776 94.552 26.2164 95.3691 26.2164C96.0524 26.2164 96.5875 25.9402 96.9748 25.3871C97.3616 24.8343 97.5552 24.072 97.5552 23.1C97.5552 22.1145 97.3616 21.3578 96.9748 20.8313C96.5875 20.3046 96.0423 20.0414 95.3403 20.0414Z" fill="#F9F9F9"/>
<path d="M101.569 27.0746H100.371V15.85H101.569V27.0746Z" fill="#F9F9F9"/>
<path d="M108.453 27.0748L108.215 25.9495H108.157C107.763 26.4452 107.37 26.7809 106.978 26.9558C106.586 27.1317 106.096 27.2193 105.51 27.2193C104.726 27.2193 104.112 27.0172 103.667 26.6134C103.222 26.2096 102.999 25.6351 102.999 24.8894C102.999 23.293 104.276 22.456 106.83 22.3788L108.172 22.3353V21.8449C108.172 21.2244 108.039 20.7661 107.771 20.4707C107.505 20.1746 107.077 20.0268 106.491 20.0268C105.832 20.0268 105.086 20.2288 104.255 20.6327L103.887 19.7165C104.277 19.5049 104.703 19.3391 105.168 19.2189C105.632 19.0987 106.097 19.0385 106.563 19.0385C107.506 19.0385 108.204 19.2474 108.659 19.6659C109.113 20.0844 109.341 20.7553 109.341 21.6788V27.0746H108.453V27.0748ZM105.748 26.2312C106.493 26.2312 107.079 26.0267 107.505 25.6181C107.93 25.2095 108.143 24.6369 108.143 23.9008V23.1867L106.945 23.2368C105.993 23.2712 105.307 23.4185 104.886 23.6812C104.465 23.9432 104.255 24.3509 104.255 24.904C104.255 25.3366 104.385 25.6663 104.648 25.8919C104.91 26.1181 105.276 26.2312 105.748 26.2312Z" fill="#F9F9F9"/>
<path d="M110.036 19.1685H111.319L113.051 23.6773C113.431 24.7067 113.666 25.4496 113.758 25.9067H113.816C113.878 25.661 114.01 25.2418 114.209 24.6472C114.408 24.0531 115.062 22.2273 116.167 19.1685H117.452L114.054 28.1716C113.717 29.0613 113.324 29.6926 112.874 30.066C112.425 30.4384 111.872 30.6243 111.219 30.6243C110.853 30.6243 110.493 30.5835 110.136 30.502V29.5427C110.401 29.6002 110.697 29.6293 111.024 29.6293C111.846 29.6293 112.433 29.1676 112.784 28.2441L113.224 27.1189L110.036 19.1685Z" fill="#F9F9F9"/>
<path d="M73.3305 19.9032C73.7106 20.2178 74.5043 20.8786 74.5043 22.1361C74.5043 23.3592 73.8097 23.9391 73.115 24.484C72.9 24.6988 72.6519 24.9311 72.6519 25.2953C72.6519 25.6584 72.8998 25.857 73.0824 26.006L73.6779 26.4682C74.4054 27.0803 75.0663 27.643 75.0663 28.7844C75.0663 30.3388 73.5613 31.9093 70.7174 31.9093C68.3191 31.9093 67.1621 30.7685 67.1621 29.5441C67.1621 28.949 67.4584 28.1061 68.4355 27.5266C69.4601 26.8982 70.8501 26.8163 71.594 26.7655C71.3617 26.4682 71.0978 26.1539 71.0978 25.642C71.0978 25.3613 71.1808 25.1957 71.2631 24.9963C71.0805 25.0131 70.8988 25.0297 70.7333 25.0297C68.9809 25.0297 67.9887 23.7232 67.9887 22.4339C67.9887 21.673 68.3364 20.8291 69.0467 20.218C69.9897 19.4408 71.1141 19.3081 72.0079 19.3081H75.4137L74.3553 19.9034H73.3305V19.9032ZM72.1562 27.2461C72.024 27.2288 71.9409 27.2288 71.7763 27.2288C71.6276 27.2288 70.7333 27.2626 70.0396 27.4947C69.6758 27.6259 68.6172 28.0228 68.6172 29.1976C68.6172 30.3712 69.7588 31.2158 71.5285 31.2158C73.115 31.2158 73.9594 30.4535 73.9594 29.4291C73.9591 28.584 73.4133 28.1394 72.1562 27.2461ZM72.6361 24.1037C73.0159 23.7229 73.0485 23.1943 73.0485 22.8963C73.0485 21.7059 72.3378 19.8538 70.9655 19.8538C70.5351 19.8538 70.0724 20.0685 69.8078 20.3996C69.527 20.7468 69.4435 21.1929 69.4435 21.6234C69.4435 22.7312 70.0885 24.5671 71.5114 24.5671C71.9249 24.5668 72.3702 24.3684 72.6361 24.1037Z" fill="#F9F9F9"/>
<path d="M62.9194 26.9815C60.2946 26.9815 58.8911 24.934 58.8911 23.0845C58.8911 20.9213 60.6574 19.073 63.168 19.073C65.5938 19.073 67.113 20.971 67.113 22.9693C67.1132 24.9167 65.6114 26.9815 62.9194 26.9815ZM64.9829 25.6442C65.3798 25.1154 65.4789 24.4553 65.4789 23.8108C65.4789 22.3574 64.7855 19.5841 62.738 19.5841C62.1933 19.5841 61.6486 19.7991 61.2525 20.1465C60.6084 20.7236 60.4923 21.4504 60.4923 22.1611C60.4923 23.7945 61.3014 26.485 63.2997 26.485C63.9435 26.485 64.6041 26.1721 64.9829 25.6442Z" fill="#F9F9F9"/>
<path d="M53.9706 26.9815C51.3453 26.9815 49.9416 24.934 49.9416 23.0845C49.9416 20.9213 51.7086 19.073 54.2184 19.073C56.645 19.073 58.1639 20.971 58.1639 22.9693C58.1639 24.9167 56.6618 26.9815 53.9706 26.9815ZM56.0344 25.6442C56.4305 25.1154 56.5299 24.4553 56.5299 23.8108C56.5299 22.3574 55.8359 19.5841 53.7885 19.5841C53.244 19.5841 52.6988 19.7991 52.3029 20.1465C51.6589 20.7236 51.5435 21.4504 51.5435 22.1611C51.5435 23.7945 52.3521 26.485 54.3507 26.485C54.9947 26.485 55.6548 26.1721 56.0344 25.6442Z" fill="#F9F9F9"/>
<path d="M48.6805 26.723L46.3064 27.2708C45.3432 27.4205 44.4804 27.5522 43.5679 27.5522C38.9858 27.5522 37.2435 24.1824 37.2435 21.5429C37.2435 18.3231 39.7164 15.3359 43.9499 15.3359C44.8465 15.3359 45.7089 15.4684 46.489 15.6843C47.7339 16.033 48.3148 16.4642 48.6802 16.7135L47.3019 18.0248L46.7213 18.157L47.1361 17.4928C46.572 16.9455 45.5419 15.9332 43.5839 15.9332C40.9611 15.9332 38.9853 17.926 38.9853 20.8305C38.9853 23.9503 41.2432 26.8885 44.8612 26.8885C45.9246 26.8885 46.4712 26.673 46.9696 26.4734V23.8013L44.4636 23.934L45.791 23.2195H49.3103L48.8791 23.6343C48.762 23.7344 48.746 23.768 48.7128 23.8995C48.6956 24.0492 48.68 24.531 48.68 24.6968V26.723H48.6805Z" fill="#F9F9F9"/>
<path d="M78.5768 26.2446C78.0288 26.1947 77.9141 26.0956 77.9141 25.4475V25.2647V16.0523C77.9174 16.0166 77.9196 15.9798 77.923 15.9453C77.9899 15.3646 78.1557 15.265 78.6709 14.9658H76.2964L75.051 15.5635H76.3201V15.571L76.3192 15.565V25.2647V25.8129C76.3192 26.1443 76.2537 26.1947 75.8714 26.6921H78.8098L79.4241 26.3279C79.1422 26.294 78.8595 26.2777 78.5768 26.2446Z" fill="#F9F9F9"/>
<path d="M85.3315 26.3972C85.1508 26.4963 84.9694 26.6122 84.7887 26.694C84.2438 26.9411 83.6835 27.0074 83.188 27.0074C82.6618 27.0074 81.8369 26.9733 80.9954 26.364C79.8258 25.5391 79.3148 24.1215 79.3148 22.8855C79.3148 20.3308 81.3918 19.078 83.0896 19.078C83.6833 19.078 84.2939 19.226 84.7885 19.5399C85.612 20.0829 85.8263 20.7917 85.941 21.1711L82.0679 22.7377L80.7984 22.8366C81.2099 24.9301 82.6275 26.1491 84.1941 26.1491C85.0347 26.1491 85.6449 25.853 86.2051 25.5732L85.3315 26.3972ZM83.7826 21.4842C84.0953 21.3693 84.2601 21.2699 84.2601 21.0393C84.2601 20.3804 83.5187 19.6217 82.6277 19.6217C81.9676 19.6217 80.7321 20.1331 80.7321 21.913C80.7321 22.1933 80.7652 22.4898 80.7823 22.7876L83.7826 21.4842Z" fill="#F9F9F9"/>
<path d="M86.9228 19.1908V20.2785H86.7906V19.1908H86.4307V19.078H87.2825V19.1908H86.9228Z" fill="#F9F9F9"/>
<path d="M88.4054 20.2785V19.1807H88.3994L88.0645 20.2785H87.961L87.6232 19.1807H87.6189V20.2785H87.4989V19.078H87.7045L88.0102 20.0484H88.0146L88.3157 19.078H88.5242V20.2785H88.4054Z" fill="#F9F9F9"/>
<path d="M40.5399 12.1032H39.715C39.715 11.9897 39.6368 11.6685 39.4803 11.1391H38.2895C38.128 11.6598 38.0471 11.9811 38.0471 12.1032H37.2714C37.2714 12.0363 37.472 11.4863 37.8732 10.4536C38.2744 9.42085 38.4749 8.85193 38.4749 8.74731H39.4494C39.4494 8.84521 39.631 9.40573 39.9945 10.4291C40.3581 11.4525 40.5399 12.0104 40.5399 12.1032ZM39.3491 10.647C39.0551 9.76038 38.9083 9.28096 38.9083 9.20874H38.867C38.867 9.27568 38.7149 9.7551 38.4109 10.647H39.3491Z" fill="#F9F9FA"/>
<path d="M43.8637 12.1034H43.2271C43.2271 12.0328 42.9907 11.6609 42.5183 10.9874C42.0233 10.2776 41.7416 9.79241 41.6729 9.53111H41.6317C41.6746 9.90735 41.6962 10.2476 41.6962 10.5519C41.6962 10.9763 41.7082 11.4937 41.7322 12.1036H41.098C41.1237 11.5709 41.1367 10.9859 41.1367 10.3484C41.1367 9.72115 41.1237 9.18751 41.098 8.74768H41.8635C41.8635 8.83886 42.0756 9.20239 42.5 9.83801C42.9519 10.5132 43.2115 10.9713 43.2784 11.212H43.3171C43.2758 10.8288 43.2552 10.4851 43.2552 10.1809C43.2552 9.71539 43.2432 9.23742 43.2192 8.74768H43.8637C43.8394 9.17383 43.8277 9.70747 43.8277 10.3484C43.8277 10.9941 43.8394 11.5791 43.8637 12.1034Z" fill="#F9F9FA"/>
<path d="M47.5998 10.3092C47.5998 10.7973 47.4434 11.2234 47.1307 11.5877C46.8178 11.9522 46.3797 12.1341 45.816 12.1341C45.5617 12.1341 45.2111 12.1237 44.7643 12.1031C44.7867 11.5841 44.7979 10.9989 44.7979 10.3479C44.7979 9.72256 44.7867 9.18891 44.7643 8.74717H45.2154C45.2894 8.74717 45.3992 8.74453 45.5454 8.73949C45.6913 8.73445 45.7868 8.73181 45.8314 8.73181C46.4517 8.73181 46.9013 8.88658 47.1809 9.19587C47.4602 9.50516 47.5998 9.87637 47.5998 10.3092ZM46.896 10.4201C46.896 10.0902 46.7998 9.8123 46.6074 9.58603C46.415 9.36024 46.121 9.24722 45.7258 9.24722C45.6519 9.24722 45.5507 9.2549 45.4216 9.2705C45.4386 9.61434 45.4472 9.97331 45.4472 10.3479C45.4472 10.7587 45.4559 11.1659 45.4729 11.5697C45.5845 11.592 45.6963 11.6033 45.8079 11.6033C46.1774 11.6033 46.4509 11.4883 46.6287 11.259C46.8065 11.0296 46.896 10.75 46.896 10.4201Z" fill="#F9F9FA"/>
<path d="M51.0444 12.1031H50.2814C50.082 11.4949 49.9291 11.1194 49.8226 10.9769C49.7161 10.8341 49.5443 10.7629 49.3072 10.7629C49.2074 10.7629 49.1121 10.7638 49.0212 10.7655C49.0212 11.2072 49.0288 11.653 49.0444 12.1031H48.3279C48.3503 11.5842 48.3615 10.999 48.3615 10.348C48.3615 9.72275 48.3503 9.18913 48.3279 8.74741H48.7738C48.8254 8.74741 48.9331 8.74478 49.0972 8.73974C49.2614 8.7347 49.413 8.73206 49.5522 8.73206C50.3409 8.73206 50.7354 9.00174 50.7354 9.54136C50.7354 9.96916 50.5103 10.2672 50.0602 10.4358V10.4745C50.2336 10.5225 50.3858 10.658 50.5163 10.8802C50.6466 11.1026 50.8227 11.5103 51.0444 12.1031ZM50.0779 9.73187C50.0779 9.38996 49.8579 9.21888 49.418 9.21888C49.2566 9.21888 49.1138 9.23088 48.9902 9.25487C49.0092 9.5212 49.0185 9.86839 49.0185 10.2962C49.1131 10.2998 49.193 10.3012 49.2582 10.3012C49.8046 10.3015 50.0779 10.1117 50.0779 9.73187Z" fill="#F9F9FA"/>
<path d="M54.7393 10.3635C54.7393 10.8909 54.5778 11.3283 54.2546 11.6755C53.9314 12.0225 53.5319 12.1962 53.0561 12.1962C52.6023 12.1962 52.2225 12.0369 51.9168 11.718C51.6109 11.3993 51.458 10.9941 51.458 10.5029C51.458 9.97549 51.6195 9.53806 51.9427 9.19085C52.2657 8.84388 52.6652 8.67017 53.1412 8.67017C53.595 8.67017 53.9746 8.82901 54.2805 9.14694C54.5862 9.46488 54.7393 9.87015 54.7393 10.3635ZM54.0279 10.4381C54.0279 10.0789 53.936 9.7876 53.7522 9.56421C53.5681 9.34082 53.3414 9.22924 53.0717 9.22924C52.8207 9.22924 52.6076 9.34178 52.4324 9.56685C52.2573 9.79193 52.1695 10.0763 52.1695 10.4201C52.1695 10.7774 52.2618 11.0682 52.4466 11.2926C52.6314 11.5169 52.8576 11.629 53.1259 11.629C53.3766 11.629 53.59 11.516 53.7651 11.2899C53.9403 11.0641 54.0279 10.78 54.0279 10.4381Z" fill="#F9F9FA"/>
<path d="M56.1966 12.1032H55.4672C55.4895 11.5706 55.5008 10.9856 55.5008 10.348C55.5008 9.72078 55.4895 9.18714 55.4672 8.74731H56.1966C56.1743 9.18042 56.163 9.71383 56.163 10.348C56.1633 10.9959 56.1743 11.5809 56.1966 12.1032Z" fill="#F9F9FA"/>
<path d="M59.9328 10.3092C59.9328 10.7973 59.7764 11.2234 59.4637 11.5877C59.1508 11.9522 58.7127 12.1341 58.1491 12.1341C57.8947 12.1341 57.5441 12.1237 57.0974 12.1031C57.1197 11.5841 57.1309 10.9989 57.1309 10.3479C57.1309 9.72256 57.1197 9.18891 57.0974 8.74717H57.5485C57.6224 8.74717 57.7323 8.74453 57.8784 8.73949C58.0243 8.73445 58.1198 8.73181 58.1644 8.73181C58.7847 8.73181 59.2343 8.88658 59.5139 9.19587C59.7932 9.50516 59.9328 9.87637 59.9328 10.3092ZM59.2291 10.4201C59.2291 10.0902 59.1328 9.8123 58.9404 9.58603C58.748 9.36024 58.454 9.24722 58.0588 9.24722C57.9849 9.24722 57.8837 9.2549 57.7546 9.2705C57.7716 9.61434 57.7802 9.97331 57.7802 10.3479C57.7802 10.7587 57.7889 11.1659 57.8059 11.5697C57.9175 11.592 58.0293 11.6033 58.1409 11.6033C58.5104 11.6033 58.784 11.4883 58.9618 11.259C59.1396 11.0296 59.2291 10.75 59.2291 10.4201Z" fill="#F9F9FA"/>
<path d="M64.8889 12.1032H64.064C64.064 11.9897 63.9858 11.6685 63.8291 11.1391H62.6382C62.4767 11.6598 62.3959 11.9811 62.3959 12.1032H61.6204C61.6204 12.0363 61.821 11.4863 62.2222 10.4536C62.6233 9.42085 62.824 8.85193 62.824 8.74731H63.7984C63.7984 8.84521 63.9803 9.40573 64.3435 10.4291C64.7068 11.4525 64.8889 12.0104 64.8889 12.1032ZM63.6983 10.647C63.4044 9.76038 63.2573 9.28096 63.2573 9.20874H63.216C63.216 9.27568 63.0641 9.7551 62.7601 10.647H63.6983Z" fill="#F9F9FA"/>
<path d="M67.8958 9.62635C67.8958 10.0371 67.7432 10.3404 67.4382 10.5362C67.1333 10.732 66.7592 10.8302 66.3157 10.8302C66.2349 10.8302 66.1775 10.8285 66.143 10.8251C66.143 11.1483 66.1523 11.5743 66.1713 12.1036H65.4469C65.4692 11.6071 65.4805 11.0219 65.4805 10.3484C65.4805 9.72976 65.4692 9.19612 65.4469 8.74766H65.8954C65.9589 8.74766 66.0808 8.74501 66.2613 8.73997C66.4417 8.73494 66.5979 8.7323 66.7304 8.7323C67.0567 8.7323 67.3327 8.8062 67.5577 8.95401C67.7828 9.10182 67.8958 9.32569 67.8958 9.62635ZM67.2307 9.76791C67.2307 9.40031 66.9867 9.21628 66.4986 9.21628C66.3765 9.21628 66.2476 9.22923 66.112 9.2549C66.131 9.57979 66.1403 9.9474 66.1403 10.3582C66.1833 10.3618 66.2332 10.3632 66.2898 10.3632C66.9173 10.3635 67.2307 10.165 67.2307 9.76791Z" fill="#F9F9FA"/>
<path d="M70.9871 9.62635C70.9871 10.0371 70.8345 10.3404 70.5297 10.5362C70.2247 10.732 69.8504 10.8302 69.407 10.8302C69.3261 10.8302 69.2688 10.8285 69.2342 10.8251C69.2342 11.1483 69.2436 11.5743 69.2625 12.1036H68.5381C68.5605 11.6071 68.5717 11.0219 68.5717 10.3484C68.5717 9.72976 68.5605 9.19612 68.5381 8.74766H68.9866C69.0502 8.74766 69.1721 8.74501 69.3525 8.73997C69.533 8.73494 69.6892 8.7323 69.8216 8.7323C70.148 8.7323 70.4239 8.8062 70.649 8.95401C70.874 9.10182 70.9871 9.32569 70.9871 9.62635ZM70.3222 9.76791C70.3222 9.40031 70.0781 9.21628 69.5901 9.21628C69.4679 9.21628 69.3391 9.22923 69.2035 9.2549C69.2225 9.57979 69.2318 9.9474 69.2318 10.3582C69.2748 10.3618 69.3247 10.3632 69.3813 10.3632C70.0085 10.3635 70.3222 10.165 70.3222 9.76791Z" fill="#F9F9FA"/>
<path d="M76.0416 10.3635C76.0416 10.8909 75.8801 11.3283 75.5569 11.6755C75.2337 12.0227 74.8342 12.1962 74.3584 12.1962C73.9046 12.1962 73.5248 12.0369 73.2191 11.718C72.9134 11.3993 72.7603 10.9941 72.7603 10.5029C72.7603 9.97549 72.9218 9.53806 73.245 9.19085C73.5682 8.84364 73.9677 8.67017 74.4436 8.67017C74.8973 8.67017 75.2771 8.82901 75.5828 9.14694C75.8885 9.46488 76.0416 9.87015 76.0416 10.3635ZM75.3302 10.4381C75.3302 10.0789 75.2383 9.7876 75.0545 9.56421C74.8707 9.34082 74.6437 9.22924 74.374 9.22924C74.123 9.22924 73.9099 9.34178 73.7347 9.56685C73.5596 9.79193 73.4718 10.0763 73.4718 10.4201C73.4718 10.7774 73.5641 11.0682 73.7489 11.2926C73.9337 11.5169 74.1599 11.629 74.428 11.629C74.6789 11.629 74.892 11.516 75.0672 11.2899C75.2426 11.0641 75.3302 10.78 75.3302 10.4381Z" fill="#F9F9FA"/>
<path d="M79.5352 12.1034H78.8986C78.8986 12.0328 78.6625 11.6609 78.1898 10.9874C77.6948 10.2776 77.4131 9.79241 77.3444 9.53111H77.3032C77.3461 9.90735 77.3677 10.2476 77.3677 10.5519C77.3677 10.9763 77.3797 11.4937 77.4037 12.1036H76.7695C76.7952 11.5709 76.8082 10.9859 76.8082 10.3484C76.8082 9.72115 76.7952 9.18751 76.7695 8.74768H77.535C77.535 8.83886 77.7473 9.20239 78.1715 9.83801C78.6236 10.5132 78.883 10.9713 78.9499 11.212H78.9886C78.9473 10.8288 78.9267 10.4851 78.9267 10.1809C78.9267 9.71539 78.9147 9.23742 78.8907 8.74768H79.5352C79.5109 9.17383 79.4992 9.70747 79.4992 10.3484C79.4992 10.9941 79.5112 11.5791 79.5352 12.1034Z" fill="#F9F9FA"/>
<defs>
<linearGradient id="paint0_linear" x1="16.06" y1="8.31132" x2="16.06" y2="35.4982" gradientUnits="userSpaceOnUse">
<stop stop-color="#257CB0"/>
<stop offset="0.2863" stop-color="#4A93B5"/>
<stop offset="0.767" stop-color="#78BCBB"/>
<stop offset="1" stop-color="#89CFBD"/>
</linearGradient>
<linearGradient id="paint1_linear" x1="9.20551" y1="15.0587" x2="26.5969" y2="15.0587" gradientUnits="userSpaceOnUse">
<stop stop-color="#52C1AD"/>
<stop offset="1" stop-color="#DEE89A"/>
</linearGradient>
<linearGradient id="paint2_linear" x1="17.901" y1="21.9049" x2="17.901" y2="35.597" gradientUnits="userSpaceOnUse">
<stop stop-color="#EC413D"/>
<stop offset="0.1668" stop-color="#DA4452"/>
<stop offset="0.5748" stop-color="#B0487A"/>
<stop offset="0.8619" stop-color="#954A92"/>
<stop offset="1" stop-color="#8A4A9D"/>
</linearGradient>
<linearGradient id="paint3_linear" x1="27.9178" y1="18.2537" x2="27.9178" y2="25.5557" gradientUnits="userSpaceOnUse">
<stop stop-color="#F58879"/>
<stop offset="0.1194" stop-color="#F69079"/>
<stop offset="0.7128" stop-color="#FCB877"/>
<stop offset="1" stop-color="#FEC874"/>
</linearGradient>
</defs>
</svg>
