<svg width="26" height="26" viewBox="0 0 26 26" fill="none" xmlns="http://www.w3.org/2000/svg">
<path d="M13.2768 0.982422C6.37417 0.982422 0.777344 6.57925 0.777344 13.4819C0.777344 20.3845 6.37417 25.9824 13.2768 25.9824C20.1795 25.9824 25.7773 20.3845 25.7773 13.4819C25.7773 6.57925 20.1795 0.982422 13.2768 0.982422ZM15.8789 20.3549C15.2355 20.6089 14.7234 20.8015 14.3392 20.9348C13.9562 21.0681 13.5107 21.1348 13.0038 21.1348C12.225 21.1348 11.6186 20.9443 11.1869 20.5644C10.7551 20.1845 10.5403 19.7031 10.5403 19.1179C10.5403 18.8904 10.5562 18.6576 10.5879 18.4205C10.6207 18.1835 10.6726 17.9168 10.7435 17.6173L11.5488 14.7729C11.6197 14.4999 11.681 14.2406 11.7297 13.9994C11.7784 13.756 11.8017 13.5327 11.8017 13.3295C11.8017 12.9676 11.7266 12.7136 11.5773 12.5708C11.426 12.4279 11.1414 12.3581 10.717 12.3581C10.5096 12.3581 10.2959 12.3888 10.0768 12.4533C9.85988 12.52 9.67152 12.5803 9.51703 12.6396L9.72972 11.7634C10.2567 11.5486 10.7615 11.3644 11.243 11.2121C11.7244 11.0576 12.1795 10.9814 12.608 10.9814C13.3816 10.9814 13.9784 11.1697 14.3985 11.5422C14.8165 11.9158 15.0271 12.4015 15.0271 12.9983C15.0271 13.1221 15.0123 13.3401 14.9837 13.6512C14.9551 13.9634 14.9012 14.248 14.8228 14.5094L14.0218 17.3454C13.9562 17.5729 13.898 17.8332 13.8451 18.1242C13.7932 18.4152 13.7678 18.6374 13.7678 18.7867C13.7678 19.1634 13.8514 19.4205 14.0207 19.557C14.1879 19.6935 14.481 19.7623 14.8959 19.7623C15.0916 19.7623 15.3107 19.7274 15.5583 19.6597C15.8038 19.5919 15.9816 19.5316 16.0937 19.4798L15.8789 20.3549ZM15.7371 8.8438C15.3636 9.19089 14.9139 9.36443 14.3879 9.36443C13.8631 9.36443 13.4101 9.19089 13.0334 8.8438C12.6588 8.49671 12.4694 8.07449 12.4694 7.58136C12.4694 7.0893 12.6599 6.66602 13.0334 6.31575C13.4101 5.96443 13.8631 5.78983 14.3879 5.78983C14.9139 5.78983 15.3646 5.96443 15.7371 6.31575C16.1107 6.66602 16.298 7.0893 16.298 7.58136C16.298 8.07554 16.1107 8.49671 15.7371 8.8438Z" fill="white"/>
</svg>
