<svg width="18" height="20" viewBox="0 0 18 20" fill="none" xmlns="http://www.w3.org/2000/svg">
<path d="M13.7591 3.69507C13.8996 3.69506 14.0387 3.72419 14.1683 3.78077C14.2979 3.83736 14.4156 3.92027 14.5144 4.02471C14.6132 4.12916 14.6912 4.25305 14.7439 4.38924C14.7966 4.52542 14.8229 4.67118 14.8214 4.81808C14.8169 5.11447 14.7024 5.39741 14.5019 5.60701C14.3015 5.81661 14.031 5.93643 13.7475 5.9411C13.4627 5.9411 13.1896 5.82278 12.9882 5.61218C12.7868 5.40157 12.6737 5.11593 12.6737 4.81808C12.6737 4.52024 12.7868 4.2346 12.9882 4.02399C13.1896 3.81339 13.4627 3.69507 13.7475 3.69507H13.7591Z" fill="white" fill-opacity="0.8"/>
<path d="M17.7899 5.13359C17.9226 6.60679 18.0092 13.5864 17.5936 15.1924C17.3911 16.1687 16.9014 17.0541 16.1931 17.7244C15.4848 18.3947 14.5936 18.8162 13.6446 18.9297C12.0063 19.0983 10.3602 19.1689 8.71417 19.1411C7.05275 19.1909 5.39022 19.098 3.74333 18.8633C2.81256 18.6657 1.96591 18.1639 1.32564 17.4303C0.685364 16.6966 0.284593 15.7692 0.181187 14.7818C-0.0612929 13.206 -0.0843863 5.87019 0.348614 4.28227C0.56707 3.3347 1.05754 2.47973 1.75415 1.83216C2.45077 1.18459 3.32017 0.775436 4.24561 0.659645C5.73473 0.483986 7.23316 0.409365 8.73149 0.43625C10.4 0.43625 12.0858 0.484552 13.0961 0.538891C14.3131 0.569535 15.4765 1.06825 16.3638 1.93964C17.2018 2.78224 17.7101 3.92072 17.7899 5.13359ZM16.0579 14.4739C16.3017 11.4113 16.3403 8.33464 16.1733 5.26642C16.1364 4.52162 15.8471 3.8149 15.3573 3.27281C14.8675 2.73073 14.2092 2.38869 13.5003 2.30794C12.0148 2.16562 10.5232 2.10717 9.03171 2.13285C7.24775 2.13285 5.47533 2.18115 4.69593 2.27171C3.97976 2.31593 3.30121 2.6219 2.77885 3.13618C2.25648 3.65046 1.92352 4.34034 1.83813 5.08528C1.59303 8.22694 1.5718 11.3833 1.77463 14.5283C1.83328 15.1552 2.07801 15.7473 2.47453 16.2215C2.87104 16.6957 3.39948 17.0284 3.98581 17.1728C5.578 17.4126 7.18725 17.5055 8.795 17.4505C10.6713 17.4505 12.513 17.3901 13.2058 17.3116C13.931 17.2747 14.6198 16.9687 15.1488 16.4487C15.6778 15.9287 16.0124 15.2285 16.0925 14.4739" fill="white" fill-opacity="0.8"/>
<path d="M8.99038 4.99927C9.59369 4.99919 10.191 5.12462 10.7475 5.36823C11.304 5.61185 11.8087 5.96879 12.232 6.41829C12.6554 6.86778 12.989 7.40086 13.2136 7.98648C13.4381 8.5721 13.549 9.19857 13.5398 9.82943C13.5306 11.1042 13.04 12.3235 12.1748 13.2215C11.3096 14.1195 10.1401 14.6234 8.9211 14.6234C8.31757 14.6243 7.71992 14.4994 7.16304 14.2561C6.60617 14.0127 6.10123 13.6558 5.6777 13.2062C5.25418 12.7565 4.92056 12.2231 4.69633 11.6371C4.4721 11.0511 4.36174 10.4243 4.37171 9.7932C4.38086 8.51845 4.8715 7.29917 5.73668 6.40116C6.60186 5.50315 7.77141 4.99923 8.99038 4.99927ZM8.92688 12.8966C9.71021 12.8936 10.4614 12.5706 11.0201 11.9964C11.5789 11.4222 11.9009 10.6424 11.9175 9.82339C11.9314 9.00772 11.6352 8.21961 11.094 7.6321C10.5528 7.04458 9.81073 6.70569 9.0308 6.68982H9.00193C8.2186 6.69279 7.4674 7.01583 6.90866 7.59C6.34992 8.16417 6.02791 8.94399 6.01134 9.76302C6.00369 10.1696 6.07328 10.5738 6.21609 10.952C6.3589 11.3303 6.57207 11.6752 6.84326 11.9666C7.11446 12.2581 7.43827 12.4904 7.79594 12.65C8.15361 12.8097 8.53801 12.8935 8.92688 12.8966Z" fill="white" fill-opacity="0.8"/>
</svg>
