<svg width="17" height="22" viewBox="0 0 17 22" fill="none" xmlns="http://www.w3.org/2000/svg">
<path d="M8.49788 0.814209C4.23791 0.814209 0.771973 4.28794 0.771973 8.55747C0.771973 11.7683 4.27481 17.1904 6.43817 19.6269C7.62602 20.965 8.14598 21.1455 8.49788 21.1455C8.84977 21.1455 9.37006 20.965 10.5576 19.6269C12.7183 17.1934 16.2238 11.7693 16.2238 8.55747C16.2238 4.28794 12.7582 0.814209 8.49788 0.814209ZM9.65118 17.1238C8.96886 17.9196 8.62099 18.166 8.49788 18.236C8.3751 18.1654 8.02824 17.9196 7.34458 17.1238C5.569 15.0541 2.96284 10.877 2.96284 8.6069C2.96284 5.54738 5.44522 3.05942 8.49788 3.05942C11.5505 3.05942 14.0329 5.54738 14.0329 8.6069C14.0329 10.8619 11.4549 15.0201 9.65118 17.1238Z" fill="white" fill-opacity="0.8"/>
<path d="M8.49778 4.06812C6.00064 4.06812 3.96912 6.10421 3.96912 8.60696C3.96912 11.1097 6.00064 13.1458 8.49778 13.1458C10.9949 13.1458 13.0264 11.1097 13.0264 8.60696C13.0264 6.10421 10.9949 4.06812 8.49778 4.06812ZM6.87719 6.00502C7.02042 6.03044 7.15396 6.09473 7.26327 6.19091C7.37259 6.28709 7.45349 6.41147 7.49718 6.55052C7.54088 6.68958 7.54569 6.83798 7.51109 6.97958C7.47649 7.12118 7.40381 7.25056 7.30096 7.35365C7.1981 7.45674 7.06901 7.52958 6.92773 7.56425C6.78644 7.59893 6.63837 7.59411 6.49963 7.55032C6.36089 7.50653 6.23679 7.42544 6.14082 7.31588C6.04486 7.20632 5.98071 7.07249 5.95536 6.92893C6.186 6.55269 6.5018 6.23618 6.87719 6.00502ZM8.49879 11.6214C8.0588 11.6217 7.6241 11.5252 7.22535 11.3388C6.8266 11.1525 6.47349 10.8807 6.19092 10.5426C5.90836 10.2046 5.70321 9.8086 5.58994 9.38248C5.47667 8.95637 5.45804 8.51053 5.53536 8.07642C5.69389 8.2419 5.88377 8.37402 6.09387 8.46503C6.30398 8.55605 6.5301 8.60413 6.75898 8.60646C6.98786 8.6088 7.21491 8.56533 7.42682 8.47862C7.63873 8.39191 7.83125 8.26369 7.9931 8.10148C8.15495 7.93926 8.28288 7.74631 8.3694 7.53392C8.45592 7.32153 8.49928 7.09398 8.49695 6.86458C8.49462 6.63519 8.44665 6.40856 8.35584 6.19798C8.26503 5.9874 8.13321 5.7971 7.9681 5.63822C8.37889 5.56487 8.80043 5.57798 9.20589 5.67674C9.61136 5.77549 9.99189 5.95772 10.3233 6.21185C10.6547 6.46597 10.9297 6.78642 11.1308 7.15283C11.332 7.51923 11.4549 7.92358 11.4916 8.34016C11.5284 8.75673 11.4783 9.17642 11.3445 9.57254C11.2107 9.96867 10.9962 10.3326 10.7145 10.6411C10.4328 10.9496 10.0901 11.196 9.70824 11.3646C9.32639 11.5332 8.91371 11.6203 8.49644 11.6204L8.49879 11.6214Z" fill="white" fill-opacity="0.8"/>
</svg>
