<svg id="Layer_1" data-name="Layer 1" xmlns="http://www.w3.org/2000/svg" viewBox="0 0 591.21 191.77"><defs><style>.cls-1{fill:#34b5cf;fill-rule:evenodd;}.cls-2{fill:#fff;}</style></defs><title>kanal hayat 1</title><path class="cls-1" d="M185.08,10.25c-29,44.86-62.63,74.55-152,68.08l32,63.44c35.48,0,86.32,30.56,115.13,50,8.91-41.41-3.64-61.64-31.8-74.25-6.47,2.71-24.91,9.14-46.72,12.79C158.65,111.32,202.4,86.55,185.08,10.25Z"/><polygon class="cls-2" points="283.82 24.64 272.72 24.64 246.04 53.55 246.04 24.64 236.62 24.64 236.62 80.55 246.04 80.55 246.04 66.33 255.55 55.87 273.92 80.55 285.26 80.55 262.18 48.52 283.82 24.64"/><path class="cls-2" d="M332,24.64,307.31,80.55h9.82l5.36-12.62h28.19L356,80.55H366.1L341.66,24.64Zm-6,34.9L336.55,34.7l10.54,24.84Z"/><polygon class="cls-2" points="567 24.64 557.58 24.64 557.58 80.55 591.21 80.55 591.21 72.01 567 72.01 567 24.64"/><path class="cls-2" d="M495.43,24.64,470.75,80.55h9.82l5.35-12.62h28.2l5.35,12.62h10.07L505.09,24.64Zm-6,34.9L500,34.7l10.54,24.84Z"/><polygon class="cls-2" points="433.36 64.82 403.41 24.64 394.14 24.64 394.14 80.55 403.56 80.55 403.56 40.45 433.36 80.55 442.63 80.55 442.63 24.64 433.36 24.64 433.36 64.82"/><path class="cls-2" d="M342.36,110.45l-25.79,58.42h10.27l5.59-13.18h29.46l5.59,13.18H378l-25.54-58.42Zm-6.26,36.47,11-25.95,11,25.95Z"/><polygon class="cls-2" points="277.43 135.82 246.46 135.82 246.46 110.45 236.62 110.45 236.62 168.87 246.46 168.87 246.46 144.67 277.43 144.67 277.43 168.87 287.27 168.87 287.27 110.45 277.43 110.45 277.43 135.82"/><polygon class="cls-2" points="422.23 138.91 405.54 110.45 395.61 110.45 417.39 149.76 417.39 168.87 427.15 168.87 427.15 149.43 448.6 110.45 438.59 110.45 422.23 138.91"/><path class="cls-2" d="M492,110.45l-25.79,58.42h10.27l5.59-13.18h29.46l5.59,13.18h10.52L502.1,110.45Zm-6.26,36.47,11-25.95,11,25.95Z"/><polygon class="cls-2" points="544.25 119.3 562.7 119.3 562.7 168.87 572.54 168.87 572.54 119.3 591.07 119.3 591.07 110.45 544.25 110.45 544.25 119.3"/><path class="cls-1" d="M0,8.44C12.14,21,15.06,37.73,18.67,47.79c8.08,22.52,17.9,28.38,92.53,16.75C66.9,58,76.85-26.51,0,8.44Z"/></svg>