<svg width="15" height="16" viewBox="0 0 15 16" fill="none" xmlns="http://www.w3.org/2000/svg">
<path d="M14.918 14.73L10.5477 10.3537C11.6624 9.27727 12.353 7.7933 12.353 6.15668C12.353 2.87722 9.58241 0.209473 6.17651 0.209473C2.7706 0.209473 0 2.87722 0 6.15668C0 9.43615 2.7706 12.1039 6.17651 12.1039C7.67152 12.1039 9.04358 11.5893 10.113 10.7355L14.4939 15.1225C14.5516 15.1806 14.6286 15.2095 14.706 15.2095C14.7795 15.2095 14.8527 15.1831 14.9098 15.1305C15.0269 15.022 15.0304 14.8427 14.918 14.73ZM6.17651 11.5375C3.09502 11.5375 0.588239 9.12378 0.588239 6.15668C0.588239 3.18959 3.09502 0.775874 6.17651 0.775874C9.258 0.775874 11.7648 3.18959 11.7648 6.15668C11.7648 9.12378 9.2577 11.5375 6.17651 11.5375Z" fill="black"/>
</svg>