<svg width="18" height="16" viewBox="0 0 18 16" fill="none" xmlns="http://www.w3.org/2000/svg">
<path d="M17.9889 2.631C17.8634 2.82514 17.7255 3.01079 17.576 3.18675C17.1882 3.67083 16.7383 4.10068 16.2382 4.46498L16.1722 4.58169C16.1921 5.13864 16.1663 5.6963 16.0951 6.24895C15.9445 7.39114 15.6195 8.50287 15.1317 9.54458C14.6255 10.6175 13.9486 11.5993 13.1279 12.4512C11.7605 13.8841 10.001 14.8729 8.07418 15.2911C7.40176 15.4318 6.71826 15.5118 6.03178 15.53H5.70148C3.75369 15.5366 1.84427 14.9834 0.196382 13.935L0.09729 13.8683C0.382496 13.8995 0.669219 13.9143 0.956085 13.9128C1.91894 13.9146 2.87279 13.7258 3.76368 13.357C4.3919 13.0985 4.98117 12.7524 5.51431 12.3289C4.7561 12.3135 4.02175 12.0586 3.41447 11.6C2.80719 11.1415 2.35752 10.5023 2.12867 9.77244C2.35173 9.81663 2.57849 9.83896 2.8058 9.83913C3.106 9.83694 3.40506 9.80153 3.69762 9.73353L3.75267 9.70574C3.26563 9.60741 2.80397 9.40856 2.39662 9.12166C1.98927 8.83476 1.64503 8.46599 1.38548 8.03848C1.02827 7.44877 0.846713 6.76773 0.862499 6.07667C1.3704 6.35401 1.93669 6.50456 2.51403 6.51572C1.75953 5.98953 1.22889 5.1959 1.02765 4.2927C0.796971 3.36846 0.937462 2.38964 1.41851 1.56951C2.33116 2.71324 3.47172 3.65059 4.76625 4.32077C6.06077 4.99095 7.48035 5.37901 8.93297 5.45978C8.93297 5.30973 8.89443 5.18191 8.87792 5.05408C8.77156 4.20783 8.96668 3.35096 9.42843 2.63655C9.69865 2.19199 10.0619 1.81242 10.4926 1.52442C10.9234 1.23643 11.4113 1.04696 11.9222 0.969292C12.1432 0.920412 12.3679 0.890664 12.5939 0.880371C13.0682 0.88458 13.5369 0.985162 13.972 1.17612C14.4071 1.36708 14.7996 1.64451 15.1262 1.99188C15.1607 2.02889 15.2081 2.05083 15.2583 2.05301H15.3189C16.0704 1.8836 16.7911 1.5967 17.4549 1.20271H17.5044C17.2388 2.03912 16.6864 2.75248 15.9465 3.21454C16.6524 3.12433 17.3408 2.92762 17.9889 2.631Z" fill="white" fill-opacity="0.8"/>
</svg>
