<svg width="17" height="17" viewBox="0 0 17 17" fill="none" xmlns="http://www.w3.org/2000/svg">
<path d="M3.01519 2.84277H5.51301V14.5056H3.01519C2.37311 14.5056 1.75734 14.2506 1.30332 13.7965C0.849302 13.3425 0.594238 12.7268 0.594238 12.0847V5.26373C0.594238 4.62165 0.849302 4.00587 1.30332 3.55185C1.75734 3.09784 2.37311 2.84277 3.01519 2.84277Z" fill="white"/>
<path d="M7.85693 2.84237V14.5052L13.256 16.7725C13.5744 16.9091 13.9216 16.9647 14.2667 16.9342C14.6118 16.9037 14.9439 16.788 15.2333 16.5976C15.5227 16.4072 15.7604 16.148 15.925 15.8432C16.0896 15.5384 16.176 15.1975 16.1766 14.8511V2.49652C16.176 2.1501 16.0896 1.80921 15.925 1.5044C15.7604 1.19958 15.5227 0.940364 15.2333 0.749964C14.9439 0.559563 14.6118 0.443926 14.2667 0.413413C13.9216 0.382901 13.5744 0.438465 13.256 0.575129L7.85693 2.84237Z" fill="white"/>
</svg>
