<svg width="24" height="16" viewBox="0 0 24 16" fill="none" xmlns="http://www.w3.org/2000/svg">
<path d="M22.9771 2.59301C23.8168 4.55091 23.7873 11.7299 22.7709 13.6878C22.4954 14.1819 22.0454 14.5829 21.4893 14.8299C20.6938 15.1953 16.0757 15.365 11.5533 15.365C7.39911 15.365 3.31126 15.2215 2.36111 14.9408C1.93724 14.8268 1.55124 14.6227 1.23673 14.3463C0.922218 14.0699 0.68872 13.7296 0.556563 13.3549C-0.179987 11.4427 -0.37149 3.45448 1.15317 1.87511C1.64962 1.35101 2.35846 1.02056 3.12712 0.954901C4.9464 0.77869 8.44501 0.693848 11.8921 0.693848C16.1935 0.693848 20.4066 0.824374 21.2094 1.08543C21.6145 1.20039 21.9844 1.39605 22.2908 1.65738C22.5972 1.91871 22.832 2.23878 22.9771 2.59301ZM8.82802 11.1686L16.1935 7.79449L8.90904 4.41385C8.90904 6.67196 8.90904 8.90397 8.85012 11.1686" fill="white" fill-opacity="0.8"/>
</svg>
